<?xml version="1.0" standalone="no"?>
<!DOCTYPE svg PUBLIC "-//W3C//DTD SVG 20010904//EN"
 "http://www.w3.org/TR/2001/REC-SVG-20010904/DTD/svg10.dtd">
<svg version="1.0" xmlns="http://www.w3.org/2000/svg"
 width="431.000000pt" height="431.000000pt" viewBox="0 0 431.000000 431.000000"
 preserveAspectRatio="xMidYMid meet">
<metadata>
Created by potrace 1.14, written by Peter Selinger 2001-2017
</metadata>
<g transform="translate(0.000000,431.000000) scale(0.100000,-0.100000)"
fill="#000000" stroke="none">
<path d="M502 4160 l-52 -50 0 -1599 0 -1600 53 -15 c28 -8 120 -33 202 -55
480 -127 1174 -313 1200 -321 17 -5 167 -46 335 -90 168 -45 343 -92 390 -104
47 -13 180 -49 295 -80 116 -31 325 -87 465 -125 l255 -68 53 50 52 51 0 1601
0 1601 -102 27 c-57 15 -161 42 -233 62 -374 101 -1662 446 -1677 450 -10 2
-119 31 -243 65 -124 33 -249 67 -278 74 -28 8 -188 50 -354 95 -166 45 -303
81 -305 81 -2 0 -27 -22 -56 -50z"/>
</g>
</svg>
